#!OML:ASF F:\VICON\USERDATA\INSTALL\rory3\rory3.ASF
:FULLY-SPECIFIED
:DEGREES
191
root 0.709832 17.8125 5.02871 -1.53687 4.36387 1.626
lowerback 11.35 -1.47347 -4.45588
upperback 0.405882 -2.42008 1.89998
thorax -5.67639 -1.04737 4.90594
lowerneck -16.7432 -2.24238 -1.85344
upperneck 23.8363 -2.29933 -1.29062
head 10.4097 -1.3826 -0.464446
rclavicle -2.37548e-014 -5.56597e-015
rhumerus -39.5709 -34.4215 -63.7414
rradius 19.3753
rwrist 13.1562
rhand -16.4985 21.423
rfingers 7.12502
rthumb 9.71927 -8.33275
lclavicle -2.37548e-014 -5.56597e-015
lhumerus -27.8559 -2.97486 81.8567
lradius 34.8867
lwrist 11.8703
lhand -28.4385 25.6566
lfingers 7.12502
lthumb -1.80945 55.6287
rfemur -27.7675 3.7939 19.8526
rtibia 24.4943
rfoot -5.7474 -11.6755
rtoes -4.66168
lfemur 13.1591 -3.35453 -25.2267
ltibia 23.3809
lfoot -14.5675 -2.68347
ltoes -22.0619
192
root 0.691595 17.8287 5.23106 -1.60134 4.43688 1.47664
lowerback 11.3599 -1.50474 -4.33581
upperback 0.316613 -2.44301 1.97655
thorax -5.77542 -1.05582 4.92595
lowerneck -16.6357 -2.14726 -1.83057
upperneck 24.0609 -2.15327 -1.36597
head 10.4695 -1.3238 -0.475953
rclavicle -4.20927e-014 7.15625e-015
rhumerus -40.0688 -34.2729 -63.3709
rradius 19.4824
rwrist 12.7004
rhand -16.4468 21.2019
rfingers 7.12502
rthumb 9.76906 -8.55156
lclavicle -4.20927e-014 7.15625e-015
lhumerus -28.3246 -2.63009 81.9279
lradius 34.7503
lwrist 11.739
lhand -28.3327 25.8028
lfingers 7.12502
lthumb -1.70726 55.7757
rfemur -27.5375 3.97267 19.9807
rtibia 24.9649
rfoot -4.9772 -10.9936
rtoes -3.64608
lfemur 12.8146 -3.94428 -25.0589
ltibia 25.0026
lfoot -13.4861 -3.64373
ltoes -21.0443
193
root 0.674988 17.8412 5.43274 -1.84946 4.24973 1.03102
lowerback 11.5702 -1.44223 -3.88687
upperback 0.30309 -2.3017 2.08211
thorax -5.9368 -0.991721 4.77143
lowerneck -16.929 -2.15294 -1.6731
upperneck 24.458 -2.16261 -1.49206
head 10.6678 -1.33105 -0.557174
rclavicle -5.76476e-015 9.14409e-015
rhumerus -40.61 -35.101 -62.5102
rradius 19.1777
rwrist 13.2726
rhand -16.3972 21.1585
rfingers 7.12502
rthumb 9.81693 -8.59264
lclavicle -5.76476e-015 9.14409e-015
lhumerus -28.6338 -2.39858 81.9603
lradius 34.5419
lwrist 11.6572
lhand -28.0236 26.3898
lfingers 7.12502
lthumb -1.40868 56.3649
rfemur -27.0342 4.41055 20.4953
rtibia 25.4035
rfoot -4.59934 -9.84589
rtoes -1.64287
lfemur 12.4535 -4.1359 -24.5212
ltibia 27.1118
lfoot -12.4435 -4.6769
ltoes -21.0152
194
root 0.66372 17.8518 5.63401 -2.08995 3.9533 0.365342
lowerback 11.7686 -1.37443 -3.11561
upperback 0.336992 -2.10556 2.20328
thorax -6.05591 -0.912467 4.43834
lowerneck -17.4363 -2.17911 -1.46492
upperneck 24.8079 -2.20323 -1.64939
head 10.8905 -1.35135 -0.665856
rclavicle 1.92821e-014 -7.15625e-015
rhumerus -40.9552 -36.1201 -61.7885
rradius 18.8287
rwrist 14.1601
rhand -16.5549 20.5851
rfingers 7.12502
rthumb 9.66478 -9.1732
lclavicle 1.92821e-014 -7.15625e-015
lhumerus -28.7197 -2.12726 81.9132
lradius 34.0468
lwrist 11.3598
lhand -27.7379 27.1375
lfingers 7.12502
lthumb -1.13281 57.1143
rfemur -26.6535 4.90868 21.2861
rtibia 25.9844
rfoot -3.78659 -8.57657
rtoes 1.36145
lfemur 11.8875 -3.99874 -23.6758
ltibia 29.4831
lfoot -11.1397 -5.81324
ltoes -22.2762
195
root 0.65181 17.8544 5.83645 -2.27732 3.73174 -0.107052
lowerback 11.7997 -1.32709 -2.52525
upperback 0.309542 -1.95717 2.297
thorax -6.13292 -0.852839 4.18046
lowerneck -17.2992 -2.13913 -1.49504
upperneck 24.854 -2.14889 -1.61858
head 10.8819 -1.32567 -0.640548
rclavicle 2.95692e-015 -5.56597e-015
rhumerus -41.4517 -36.8743 -60.9479
rradius 18.4613
rwrist 14.8591
rhand -16.4322 20.8315
rfingers 7.12502
rthumb 9.78323 -8.92125
lclavicle 2.95692e-015 -5.56597e-015
lhumerus -29.0312 -1.69243 81.8919
lradius 33.3192
lwrist 10.6686
lhand -28.0284 25.7915
lfingers 7.12502
lthumb -1.41333 55.7666
rfemur -26.301 4.89512 22.0324
rtibia 26.6572
rfoot -2.75733 -7.85056
rtoes 3.88778
lfemur 11.3426 -3.83848 -22.9876
ltibia 31.9381
lfoot -9.72798 -6.65056
ltoes -24.643
196
root 0.638358 17.862 6.04298 -2.38066 3.47155 -0.357688
lowerback 11.6997 -1.26585 -2.21181
upperback 0.257844 -1.82745 2.36575
thorax -6.15051 -0.79626 4.05172
lowerneck -16.7499 -2.09862 -1.64741
upperneck 24.5171 -2.07752 -1.56395
head 10.6538 -1.29874 -0.573573
rclavicle 4.1223e-014 -1.51076e-014
rhumerus -42.1771 -37.5899 -59.8797
rradius 18.1356
rwrist 15.7002
rhand -16.3082 21.4584
rfingers 7.12502
rthumb 9.9028 -8.28873
lclavicle 4.1223e-014 -1.51076e-014
lhumerus -29.4738 -0.972301 81.8138
lradius 32.406
lwrist 9.60365
lhand -29.2167 23.0144
lfingers 7.12502
lthumb -2.56104 52.9788
rfemur -25.9407 4.64758 22.635
rtibia 27.4233
rfoot -2.26823 -7.84372
rtoes 5.42073
lfemur 10.7551 -3.58929 -22.5038
ltibia 34.3684
lfoot -7.76043 -8.21293
ltoes -24.0603
197
root 0.628308 17.8739 6.25074 -2.62794 3.05089 -0.53422
lowerback 11.8724 -1.15261 -1.94106
upperback 0.250438 -1.64 2.39161
thorax -6.27795 -0.708907 3.90126
lowerneck -16.533 -2.11654 -1.77861
upperneck 24.3287 -2.07616 -1.54996
head 10.5449 -1.30753 -0.54127
rclavicle -2.23881e-014 1.31198e-014
rhumerus -42.7203 -38.0391 -59.1336
rradius 17.9009
rwrist 16.0822
rhand -16.3868 21.3605
rfingers 7.12502
rthumb 9.82698 -8.39019
lclavicle -2.23881e-014 1.31198e-014
lhumerus -29.7942 -0.145215 81.6414
lradius 31.738
lwrist 8.87445
lhand -29.6898 22.3041
lfingers 7.12502
lthumb -3.01784 52.2625
rfemur -25.3852 4.50687 23.1784
rtibia 28.2385
rfoot -2.15474 -7.466
rtoes 3.9512
lfemur 10.093 -2.99804 -22.0492
ltibia 36.7531
lfoot -5.68227 -9.36814
ltoes -23.5226
198
root 0.615257 17.8823 6.45589 -2.77696 2.74688 -0.718119
lowerback 11.8764 -1.06748 -1.70066
upperback 0.31994 -1.49361 2.40455
thorax -6.22382 -0.645989 3.75224
lowerneck -16.989 -2.1381 -1.64903
upperneck 24.5226 -2.09222 -1.69079
head 10.7009 -1.32164 -0.62417
rclavicle 4.82053e-015 -1.11319e-014
rhumerus -42.6738 -37.8248 -59.3833
rradius 18.0401
rwrist 15.7215
rhand -16.6394 20.5692
rfingers 7.12502
rthumb 9.58327 -9.1928
lclavicle 4.82053e-015 -1.11319e-014
lhumerus -30.0452 0.447215 81.4839
lradius 31.3734
lwrist 8.95977
lhand -28.9979 21.1489
lfingers 7.12502
lthumb -2.34966 51.1158
rfemur -24.9401 4.25447 23.7153
rtibia 29.0071
rfoot -2.22192 -6.30374
rtoes 4.03783
lfemur 9.14587 -2.49647 -21.5242
ltibia 39.0634
lfoot -2.41504 -11.3174
ltoes -18.9597
199
root 0.597305 17.8937 6.65378 -2.86491 2.63059 -0.887075
lowerback 11.8073 -1.02438 -1.52792
upperback 0.414582 -1.41269 2.41483
thorax -6.0947 -0.6147 3.64676
lowerneck -17.593 -2.15419 -1.43984
upperneck 24.8069 -2.12294 -1.82395
head 10.9186 -1.33453 -0.723764
rclavicle -3.01407e-014 -4.37326e-015
rhumerus -42.5041 -37.4784 -59.8265
rradius 18.3199
rwrist 15.2269
rhand -16.4281 19.8905
rfingers 7.12502
rthumb 9.78717 -9.86206
lclavicle -3.01407e-014 -4.37326e-015
lhumerus -30.2989 0.899328 81.3932
lradius 31.2081
lwrist 9.16167
lhand -27.7176 21.7116
lfingers 7.12502
lthumb -1.11319 51.6884
rfemur -24.4952 4.08117 24.1697
rtibia 29.6561
rfoot -2.95139 -5.64221
rtoes 8.11535
lfemur 8.02451 -2.14748 -20.9755
ltibia 41.3085
lfoot 0.622155 -13.1249
ltoes -18.6474
200
root 0.576478 17.9071 6.84379 -3.04825 2.40846 -1.06178
lowerback 11.9667 -0.928883 -1.43513
upperback 0.46141 -1.26917 2.49035
thorax -6.14532 -0.545341 3.65424
lowerneck -17.6554 -2.14832 -1.41796
upperneck 24.6991 -2.10408 -1.88266
head 10.8897 -1.33075 -0.745308
rclavicle 1.57785e-014 -1.94809e-014
rhumerus -42.6491 -38.0453 -59.2418
rradius 17.9897
rwrist 15.8984
rhand -16.2628 20.146
rfingers 7.12502
rthumb 9.94661 -9.59901
lclavicle 1.57785e-014 -1.94809e-014
lhumerus -30.7475 1.64511 81.2685
lradius 31.3405
lwrist 8.41367
lhand -26.0658 24.6413
lfingers 7.12502
lthumb 0.482179 54.6205
rfemur -23.8889 4.1114 24.6494
rtibia 30.1449
rfoot -2.66581 -5.45354
rtoes 4.90396
lfemur 6.97145 -1.78179 -20.4391
ltibia 43.4818
lfoot 2.99597 -15.1024
ltoes -22.0777
201
root 0.560861 17.924 7.03875 -3.24877 2.3754 -1.13615
lowerback 12.2252 -0.885276 -1.31227
upperback 0.331344 -1.1921 2.50197
thorax -6.43638 -0.504323 3.59491
lowerneck -17.2947 -2.12258 -1.44775
upperneck 24.6613 -2.0487 -1.95074
head 10.8057 -1.3161 -0.751236
rclavicle 1.71203e-014 -1.70955e-014
rhumerus -43.1943 -38.5482 -58.4509
rradius 17.8026
rwrist 16.4586
rhand -15.9922 20.1201
rfingers 7.12502
rthumb 10.2077 -9.61224
lclavicle 1.71203e-014 -1.70955e-014
lhumerus -31.5956 2.07515 81.1858
lradius 31.5418
lwrist 7.82939
lhand -25.1983 25.7403
lfingers 7.12502
lthumb 1.32009 55.716
rfemur -23.1122 4.00661 24.9517
rtibia 30.4329
rfoot -2.90394 -5.59856
rtoes 5.00235
lfemur 5.95687 -1.57734 -20.0479
ltibia 45.6169
lfoot 5.65817 -17.0473
ltoes -19.3709
202
root 0.542701 17.9496 7.24196 -3.41106 2.39462 -1.37677
lowerback 12.4053 -0.837418 -0.970337
upperback 0.154046 -1.07929 2.47077
thorax -6.74104 -0.453523 3.35733
lowerneck -16.978 -2.18047 -1.34564
upperneck 24.8174 -2.15685 -1.98653
head 10.7992 -1.36041 -0.794195
rclavicle -1.39398e-014 2.8625e-014
rhumerus -43.555 -38.1976 -58.4359
rradius 17.8753
rwrist 16.0411
rhand -15.7182 20.2287
rfingers 7.12502
rthumb 10.472 -9.49045
lclavicle -1.39398e-014 2.8625e-014
lhumerus -32.1314 1.92884 81.1376
lradius 31.3082
lwrist 7.65416
lhand -25.045 27.2982
lfingers 7.12502
lthumb 1.46808 57.2729
rfemur -22.2382 3.88484 25.3984
rtibia 30.5294
rfoot -3.45793 -5.44021
rtoes 8.00945
lfemur 4.79596 -1.5743 -19.5161
ltibia 47.7625
lfoot 9.58261 -18.417
ltoes -6.53399
203
root 0.523994 17.971 7.42859 -3.49774 2.06689 -2.04015
lowerback 12.5974 -0.748461 -0.343824
upperback 0.0485029 -0.855579 2.62895
thorax -6.98311 -0.358058 3.13738
lowerneck -16.9525 -2.21761 -1.28109
upperneck 24.8837 -2.21801 -2.02445
head 10.8169 -1.38716 -0.827915
rclavicle 1.73937e-015 -1.78906e-014
rhumerus -43.4467 -37.7639 -58.7559
rradius 17.9594
rwrist 15.6635
rhand -15.5733 20.1138
rfingers 7.12502
rthumb 10.6118 -9.59823
lclavicle 1.73937e-015 -1.78906e-014
lhumerus -32.1673 2.13458 81.0715
lradius 30.3689
lwrist 7.7076
lhand -24.897 26.7002
lfingers 7.12502
lthumb 1.61101 56.6739
rfemur -21.4696 4.05988 26.3499
rtibia 30.4443
rfoot -3.921 -5.14855
rtoes 8.81674
lfemur 3.4183 -1.44083 -18.5696
ltibia 50.014
lfoot 13.5164 -19.8177
ltoes 0.795727
204
root 0.508168 17.9885 7.59558 -3.50584 1.6312 -2.62393
lowerback 12.8475 -0.637842 0.131794
upperback 0.0376767 -0.617855 2.85136
thorax -7.15221 -0.252395 3.067
lowerneck -17.3359 -2.23192 -1.22131
upperneck 24.8504 -2.19904 -2.20038
head 10.8763 -1.39528 -0.90401
rclavicle 7.05686e-015 7.95139e-015
rhumerus -42.7883 -37.2018 -59.3648
rradius 18.026
rwrist 15.4043
rhand -15.5666 19.3788
rfingers 7.12502
rthumb 10.6182 -10.3329
lclavicle 7.05686e-015 7.95139e-015
lhumerus -32.2285 2.57675 81.128
lradius 29.6678
lwrist 8.11172
lhand -25.531 23.8424
lfingers 7.12502
lthumb 0.998678 53.8198
rfemur -20.7952 4.33293 27.2115
rtibia 30.1846
rfoot -4.06981 -5.02845
rtoes 8.35663
lfemur 1.9298 -1.1061 -17.6972
ltibia 52.3294
lfoot 16.1618 -21.7725
ltoes -1.55584
205
root 0.489585 18.0039 7.76616 -3.50111 1.25674 -3.12952
lowerback 12.9802 -0.5134 0.500065
upperback 0.0484613 -0.380256 3.04414
thorax -7.22944 -0.145242 3.02168
lowerneck -17.5897 -2.2372 -1.34898
upperneck 24.8448 -2.18786 -2.10764
head 10.9271 -1.39098 -0.851315
rclavicle -4.09993e-015 -1.11319e-014
rhumerus -42.3595 -37.2278 -59.5156
rradius 17.919
rwrist 15.7445
rhand -15.7961 19.2447
rfingers 7.12502
rthumb 10.3968 -10.4782
lclavicle -4.09993e-015 -1.11319e-014
lhumerus -32.5861 2.80942 81.2443
lradius 29.5275
lwrist 8.64273
lhand -25.8957 20.3849
lfingers 7.12502
lthumb 0.646434 50.3637
rfemur -20.0317 4.70659 27.9636
rtibia 29.8506
rfoot -4.44246 -5.27312
rtoes 8.02877
lfemur 0.427411 -0.728461 -16.8878
ltibia 54.6275
lfoot 17.5122 -22.802
ltoes -1.20351
